# xmcd CD database file generated by OrangeCD 6.3
#
# Track frame offsets:
#	150
#	11144
#	21860
#	32145
#	42163
#	53184
#	61476
#	72011
#	81181
#	93011
#	101080
#	108214
#	119543
#	131150
#	140960
#	151605
#	163324
#	172731
#	183517
#	195528
#	206718
#	217851
#	229221
#	239978
#
# Disc length: 3332 seconds
#
# Revision: 0
# Processed by: cddbd v1.5.2PL0 Copyright (c) Steve Scherf et al.
# Submitted via: OrangeCD 6.3
#
DISCID=570d0218
DTITLE=Various Artist - Country Hicks, Vol. 1
DYEAR=1900
DGENRE=
TTITLE0=Leon Bass - Country Hix's
TTITLE1=Jimmy Smith - Pinch Me Quick
TTITLE2=Dorse Lewis - Mexican Twist
TTITLE3=Phil Beasley and Charley Brown - Good Gosh Gal
TTITLE4=Lefty Nix - Model 'a' Ford Blues
TTITLE5=Don Fowler - Oklahoma Baby
TTITLE6=James Wilson - Wilson Blues #1
TTITLE7=Jim Pipkins - Chew Tobacco Rag
TTITLE8=Blankenship Brothers - Waitin' For A Train
TTITLE9=Leon Bass - Love-a-rama
TTITLE10=Carl Phillips - Salty Dog Blues
TTITLE11=Al Barkle - Jumpin' From 6 To 6
TTITLE12=Texas Red Rhodes - Go Cats Go
TTITLE13=Bill Chappell - Down On The Farm Boogie
TTITLE14=Webb Foley - Makin' A Plan
TTITLE15="Harmonica" Frank Floyd - Swamp Root
TTITLE16=Ford Nix - Ain't No Sigh I Wouldn't If I Could
TTITLE17=Bob Baker - Kitty Kar Korner
TTITLE18=High Friar - I Can't Stay Mad At You
TTITLE19=Tommy Boyles - We're Buggin' Out
TTITLE20=Bill Goodwin - Teenage Blues
TTITLE21=Jimmy Johnson - All Dressed Up
TTITLE22=Leroy Dobson - I Wanna Make Love
TTITLE23=The Raindrops - I Don't Want A Sweetheart
EXTD=
EXTT0=
EXTT1=
EXTT2=
EXTT3=
EXTT4=
EXTT5=
EXTT6=
EXTT7=
EXTT8=
EXTT9=
EXTT10=
EXTT11=
EXTT12=
EXTT13=
EXTT14=
EXTT15=
EXTT16=
EXTT17=
EXTT18=
EXTT19=
EXTT20=
EXTT21=
EXTT22=
EXTT23=
PLAYORDER=
